# xmcd
#
# Track frame offsets: 
#        150
#        18895
#        37702
#        54467
#        74262
#        91815
#        114120
#        135380
#        155987
#        173940
#        194390
#        215897
#        231610
#        252205
#
# Disc length: 3653 seconds
#
# Revision: 3
# Processed by: cddbd v1.5.2PL0 Copyright (c) Steve Scherf et al.
# Submitted via: ExactAudioCopy v0.99pb3
#
DISCID=be0e430e
DTITLE=Various Artist - Wave Music Vol. 1 [CD 2)
DYEAR=1999
DGENRE=Jazz
TTITLE0=Slim Man - Fade To Gray
TTITLE1=Slim Man - Secret Rendezvous
TTITLE2=Slim Man - Overdose Of You
TTITLE3=One World - Spirit beckon you
TTITLE4=Karukas, Gregg - Lady In My Heart
TTITLE5=Karukas, Gregg - Two Hearts Make One
TTITLE6=Karukas, Gregg - Learning To Dance
TTITLE7=Karukas, Gregg - Love Like This
TTITLE8=Dupree, Robbie - Walking On Water
TTITLE9=Dupree, Robbie - If We Try Again
TTITLE10=Dupree, Robbie - Walls Come Down
TTITLE11=Dupree, Robbie - Learn To Cry
TTITLE12=Dupree, Robbie - Right Direction
TTITLE13=P.C.S. aka Pieces - Caribean Romance
EXTD=
EXTT0=
EXTT1=
EXTT2=
EXTT3=
EXTT4=
EXTT5=
EXTT6=
EXTT7=
EXTT8=
EXTT9=
EXTT10=
EXTT11=
EXTT12=
EXTT13=
PLAYORDER=
